<?xml version="1.0" encoding="UTF-8"?>
<!-- Generator: Adobe Illustrator 15.0.2, SVG Export Plug-In . SVG Version: 6.00 Build 0)  -->
<!DOCTYPE svg PUBLIC "-//W3C//DTD SVG 1.1//EN" "http://www.w3.org/Graphics/SVG/1.1/DTD/svg11.dtd">
<svg version="1.1" id="Layer_1" xmlns="http://www.w3.org/2000/svg" xmlns:xlink="http://www.w3.org/1999/xlink" x="0px" y="0px" width="2520px" height="486.91px" viewBox="0 0 2520 486.91" enable-background="new 0 0 2520 486.91" xml:space="preserve">
<g id="factory">
</g>
<g id="foreground">
</g>
<g>
	<rect x="1566.817" y="253.244" fill="#FFFFFF" width="108.5" height="54.832"/>
	<rect x="1576.151" y="204.244" fill="#FFFFFF" width="11.666" height="70"/>
	<rect x="1584.298" y="204.682" opacity="0.22" fill="#808A94" enable-background="new    " width="3.484" height="48.562"/>
	<rect x="1649.077" y="253.9" fill="#E8E8E8" width="26.25" height="32.594"/>
	<rect x="1635.952" y="258.785" fill="#808A94" width="5.832" height="5.834"/>
	<rect x="1635.952" y="267.83" fill="#808A94" width="5.832" height="5.834"/>
	<rect x="1608.681" y="240.92" fill="#FFFFFF" width="30.625" height="12.031"/>
	<rect x="1625.89" y="241.65" fill="#E8E8E8" width="13.562" height="11.157"/>
</g>
<path fill="#5F7D43" d="M537.993,363.826c0,0-374.254-278.174-434-315C44.247,12,0,0,0,0v464.667L537.993,363.826z"/>
<path fill="#808A94" d="M661.661,364.41c0,0-205.582-34.674-388.5-10.5C70.161,380.742,0,401.834,0,401.834v85.076h283.662  L661.661,364.41z"/>
<path fill="#87AA5A" d="M0,486.91c0,0,394.494-168.584,620.244-131.834s243.25,84,409.5,108.5s271.25-38.5,350-78.75  s145.25-89.25,234.5-87.5s150.5,63,259,42s169.08-98.172,287-129.5c120.75-32.082,237.257-19.492,359.757,20.758  c0,13.602,2.08,14.869,2.08,257.583L0,486.91z"/>
<path opacity="0.3" fill="#606049" enable-background="new    " d="M536.581,349.633c29.589-0.652,57.871,0.857,83.997,5.11  c225.75,36.75,243.25,84,409.5,108.5s271.25-38.5,350-78.75s145.25-89.25,234.5-87.5s150.5,63,259,42s169.08-98.172,287-129.5  c120.75-32.082,236.923-19.242,359.423,21.008c0,0.573,0,28.19,0,65.166c0,0-161.419-68-305.419-46s-244,72-290,88  c-3.193,1.11-36.333,17-69.667,33.667c-42.499,21.25-81.376,44.893-97.333,46.666c-6,0.667,76-45.333,104.667-62  c0.576-0.335-48,2.667-103.667-6.333c-46.93-7.588-178-32-258,6s-254,120-384,120S724.58,395,678.247,374.667  C619.613,348.936,536.581,349.633,536.581,349.633z"/>
<polyline fill="#5F7D43" points="289.2,202.826 299.317,176.049 319.388,219.451 "/>
<polyline fill="#5F7D43" points="332.14,224.77 342.255,197.994 362.327,241.395 "/>
<polyline fill="#5F7D43" points="267.253,174.197 277.368,147.42 297.44,190.822 "/>
<polyline fill="#5F7D43" points="171.833,107.404 181.948,80.627 202.021,124.029 "/>
<polyline fill="#5F7D43" points="136.685,77.277 146.8,50.502 166.872,93.902 "/>
<polyline fill="#5F7D43" points="115.763,62.211 125.878,35.436 145.95,78.836 "/>
<polyline fill="#5F7D43" points="361.825,254.451 372.909,225.174 395.075,273.701 "/>
<polyline fill="#5F7D43" points="192.659,133.701 203.741,104.424 225.909,152.951 "/>
<g>
	<polygon opacity="0.15" fill="#E8E8E8" enable-background="new    " points="116.056,201.615 144.718,201.615 129.493,165.346  "/>
	<polygon opacity="0.15" fill="#E8E8E8" enable-background="new    " points="116.499,201.176 129.937,180.123 145.163,201.176    129.937,164.896  "/>
</g>
<g>
	<polygon opacity="0.15" fill="#E8E8E8" enable-background="new    " points="155.722,246.576 206.179,246.576 179.376,169.928  "/>
	<polygon opacity="0.15" fill="#E8E8E8" enable-background="new    " points="156.503,245.646 180.159,201.158 206.96,245.646    180.159,168.982  "/>
</g>
<g>
	<polygon opacity="0.15" fill="#E8E8E8" enable-background="new    " points="62.39,210.408 112.845,210.408 86.044,133.76  "/>
	<polygon opacity="0.15" fill="#E8E8E8" enable-background="new    " points="63.171,209.479 86.827,164.99 113.626,209.479    86.827,132.812  "/>
</g>
<g>
	<polygon opacity="0.15" fill="#E8E8E8" enable-background="new    " points="42.558,157.91 80.274,157.91 60.239,102.576  "/>
	<polygon opacity="0.15" fill="#E8E8E8" enable-background="new    " points="43.142,157.24 60.825,125.123 80.858,157.24    60.825,101.893  "/>
</g>
<g>
	<polygon opacity="0.15" fill="#E8E8E8" enable-background="new    " points="209.39,254.744 241.362,254.744 224.38,197.686  "/>
	<polygon opacity="0.15" fill="#E8E8E8" enable-background="new    " points="209.886,254.055 224.874,220.936 241.858,254.055    224.874,196.982  "/>
</g>
<path fill="#EBCC2D" d="M-6.086,441.667c0,0,94.966-30.501,202.83-55.091c91.838-20.938,198.074-37.789,275.336-39.666  c0-0.393-34.791-0.84-105.484,7.93c-40.035,4.967-119.865,18.357-165.182,28.236c-136.5,29.75-203.5,52.425-203.5,52.425l-3,4.5"/>
<g>
	<polygon fill="#606049" points="2150.489,230.451 2082.825,230.451 2101.638,200.994 2133.794,200.994  "/>
	<polygon fill="#E8E8E8" points="2155.161,262.244 2155.161,229.432 2144.952,212.367 2140.138,218 2133.138,205.807    2116.513,230.307 2087.638,230.307 2087.638,262.244  "/>
	<rect x="2087.2" y="229.869" fill="#FFFFFF" width="29.312" height="31.938"/>
	<polygon fill="#606049" points="2123.952,229.867 2133.286,229.867 2146.411,210.91 2136.497,210.91  "/>
	<polygon fill="#606049" points="2158.665,229.867 2156.036,229.867 2142.911,210.91 2146.122,210.91  "/>
	<rect x="2126.286" y="229.285" fill="#FFFFFF" width="7.291" height="32.666"/>
	<polygon fill="#E8E8E8" points="2124.917,206.654 2113.634,224.607 2089.704,224.525 2101.954,206.736  "/>
	<polygon fill="#414042" points="2123.321,207.506 2113.146,223.77 2091.436,223.693 2102.509,207.582  "/>
	<polygon fill="#E8E8E8" points="2113.384,207.045 2102.454,224.275 2101.319,224.344 2112.341,207.041  "/>
</g>
<g>
	<rect x="2014.493" y="273.58" fill="#EBCC2D" width="61.834" height="59.5"/>
	<polygon fill="#606049" points="2080.409,274.158 1985.909,274.158 1997.384,233.908 2063.712,233.908  "/>
	<polygon fill="#FDE584" points="2014.493,333.08 1991.743,333.08 1991.743,273.912 2001.659,236.826 2014.493,273.58  "/>
	<rect x="1999.034" y="305.08" fill="#606049" width="8.75" height="28"/>
	<rect x="2023.243" y="305.961" fill="#606049" width="24.209" height="17.783"/>
	<rect x="2023.243" y="277.373" fill="#606049" width="11.668" height="17.785"/>
	<rect x="1995.827" y="277.373" fill="#606049" width="14.584" height="17.785"/>
	<rect x="2051.536" y="277.373" fill="#606049" width="11.67" height="17.785"/>
	<polygon fill="#E8E8E8" points="2012.307,240.982 2020.182,265.482 2066.337,265.482 2057.148,241.201  "/>
	<polygon fill="#414042" points="2014.061,242.148 2021.124,264.344 2064.352,264.344 2056.061,242.354  "/>
	<polygon fill="#E8E8E8" points="2027.081,241.549 2034.771,265.068 2036.218,265.162 2028.438,241.549  "/>
	<polygon fill="#E8E8E8" points="2042.188,241.549 2049.88,265.068 2051.325,265.162 2043.546,241.549  "/>
</g>
<g>
	<polygon fill="#FBAE18" points="1930.835,277.223 1969.96,277.223 1969.96,305.555 1930.835,321.295  "/>
	<rect x="1935.997" y="298.51" fill="#606049" width="6.979" height="7.496"/>
	<rect x="1928.589" y="271.379" fill="#606049" width="43.174" height="22.482"/>
</g>
<path fill="#414042" d="M220.313,389.107h-5.549v0.104c-0.018-0.004-0.035-0.014-0.055-0.014c-0.971,0-1.76,1.971-1.76,4.396  c0,2.429,0.789,4.398,1.76,4.398c0.088,0,0.5,0.037,0.584,0.008l5.031,0.055L220.313,389.107z"/>
<path fill="#414042" d="M225.974,388.236h-5.549v0.104c-0.018-0.004-0.035-0.016-0.055-0.016c-0.971,0-1.76,1.973-1.76,4.398  c0,2.424,0.789,4.397,1.76,4.397c0.088,0,0.473,0.033,0.557,0.004l4.812,0.055L225.974,388.236z"/>
<ellipse fill="#414042" cx="225.826" cy="392.752" rx="1.772" ry="4.432"/>
<ellipse fill="#414042" cx="220.464" cy="393.606" rx="1.773" ry="4.434"/>
<path fill="#414042" d="M255.905,384.159h-2.131v0.104c-0.02-0.007-0.035-0.017-0.055-0.017c-0.971,0-1.76,1.971-1.76,4.396  c0,2.43,0.789,4.398,1.76,4.398c0.088,0,0.17-0.033,0.254-0.064h1.932L255.905,384.159L255.905,384.159z"/>
<path fill="#AEB69A" d="M228.429,362.479c0,0,19.332-0.264,20.795,0c1.465,0.267,2.92,2.068,3.652,4.707  c0.732,2.646,0.395,5.715,3.746,7.293c0.883,0.418,2.213,2.707,2.457,5.353c0.246,2.646-0.73,5.014,0.49,5.278  c1.219,0.269,0.486,2.644-0.977,3.175c-1.463,0.522-13.137,2.481-13.137,2.571l-16.83-0.104L228.429,362.479z"/>
<polygon fill="#606049" points="242.399,361.919 245.462,362.355 245.462,390.794 228.626,390.749 227.962,369.355 "/>
<path fill="#414042" d="M155.185,400.587h-6.514v0.123c-0.023-0.004-0.043-0.018-0.066-0.018c-1.139,0-2.064,2.312-2.064,5.163  c0,2.853,0.926,5.162,2.064,5.162c0.104,0,0.201-0.037,0.299-0.071h6.281V400.587z"/>
<ellipse fill="#414042" cx="155.227" cy="405.856" rx="2.065" ry="5.164"/>
<path fill="#414042" d="M160.417,399.622h-6.383v0.121c-0.02-0.004-0.041-0.021-0.062-0.021c-1.115,0-2.023,2.271-2.023,5.062  c0,2.793,0.908,5.059,2.023,5.059c0.1,0,0.197-0.039,0.291-0.072h6.154V399.622L160.417,399.622z"/>
<ellipse fill="#414042" cx="160.756" cy="404.638" rx="2.065" ry="5.164"/>
<path fill="#414042" d="M179.14,400.587h-6.514v0.123c-0.023-0.004-0.043-0.018-0.066-0.018c-1.139,0-2.066,2.312-2.066,5.163  c0,2.853,0.928,5.162,2.066,5.162c0.104,0,0.201-0.037,0.297-0.071h6.283V400.587z"/>
<path fill="#414042" d="M234.065,389.208h-5.549v0.103c-0.02-0.002-0.037-0.013-0.055-0.013c-0.973,0-1.762,1.972-1.762,4.398  c0,2.426,0.789,4.396,1.762,4.396c0.086,0,0.498,0.037,0.582,0.008l5.031,0.058L234.065,389.208z"/>
<path fill="#414042" d="M239.726,388.337h-5.549v0.103c-0.02-0.004-0.037-0.015-0.055-0.015c-0.973,0-1.762,1.974-1.762,4.4  c0,2.426,0.789,4.396,1.762,4.396c0.086,0,0.471,0.033,0.555,0.004l4.812,0.058L239.726,388.337z"/>
<path fill="#414042" d="M184.694,399.622h-6.383v0.121c-0.021-0.004-0.041-0.021-0.064-0.021c-1.115,0-2.023,2.271-2.023,5.062  c0,2.793,0.908,5.059,2.023,5.059c0.102,0,0.197-0.039,0.293-0.072h6.154V399.622L184.694,399.622z"/>
<rect x="144.325" y="349.743" fill="#E8E8E8" width="32.086" height="50.836"/>
<ellipse fill="#414042" cx="255.785" cy="388.696" rx="1.772" ry="4.432"/>
<ellipse fill="#414042" cx="179.182" cy="405.856" rx="2.065" ry="5.164"/>
<ellipse fill="#414042" cx="185.031" cy="404.638" rx="2.065" ry="5.164"/>
<path fill="#414042" d="M252.337,371.307c0.299,1.271,0.133,1.998-0.141,1.998c-0.711,0-3.064,0.286-3.855,0.286  c-0.855,0-1.082-0.711-1.141-1.854c-0.096-1.912-0.297-4.062-0.285-5.494c0.004-0.703,0.123-1.457,0.213-1.5  c0.393-0.199,2.334-0.449,2.926,0.143C250.442,365.27,251.778,368.927,252.337,371.307z"/>
<polygon fill="#BFBDB1" points="244.075,349.743 176.411,349.743 176.411,400.493 244.075,387.079 "/>
<polygon fill="#E8E8E8" points="239.438,356.768 181.673,356.768 181.673,385.594 239.438,377.975 "/>
<ellipse fill="#414042" cx="239.577" cy="392.853" rx="1.773" ry="4.432"/>
<path fill="#414042" d="M235.987,393.706c0,2.447-0.795,4.434-1.771,4.434c-0.98,0-1.775-1.983-1.775-4.434s0.795-4.435,1.775-4.435  C235.192,389.271,235.987,391.259,235.987,393.706z"/>
<g>
	<path fill="#808A94" d="M199.895,379.719c-0.276,0.018-0.515-0.199-0.532-0.486c-0.018-0.283,0.191-0.529,0.468-0.547   c0.275-0.018,0.514,0.2,0.532,0.484C200.38,379.456,200.17,379.702,199.895,379.719L199.895,379.719z M202.073,365.195   c0.066,0.096,4.481,6.652,5.852,8.812l-6.333,4.255c0,0-1.924-2.935-3.348-5.024c-1.053-1.546-2.182-3.308-2.477-3.727v-0.001   c-0.083-0.119-0.121-0.236,0.075-0.376c0.635-0.45,2.114-1.379,2.753-1.836c0.456-0.323,0.944-0.651,1.268-0.862   c0.362-0.237,0.215-0.381-0.117-0.162c-0.352,0.229-0.88,0.529-1.254,0.795c-0.57,0.408-2.1,1.404-2.781,1.846   c-0.146,0.091-0.281,0.105-0.408-0.079c-0.001-0.001-0.001-0.001-0.001-0.001c-0.007-0.01-0.015-0.023-0.021-0.031   c-0.095-0.135-0.692-0.986-0.692-0.986l-2.002-2.866l-0.011-0.017c-0.222-0.324-0.461-0.714-0.387-0.871   c0.098-0.193,0.995-1.043,2.709-2.209c1.616-1.103,2.384-1.518,3.127-1.918c0.031-0.016,0.079-0.037,0.139-0.062   c0.147-0.039,0.373,0.042,0.593,0.356c0.387,0.554,2.846,4.313,2.96,4.484c0.114,0.168-0.079,0.289-0.005,0.399   C201.785,365.223,201.995,365.078,202.073,365.195L202.073,365.195z M192.007,366.078c0.186-0.089,0.517,0.314,0.674,0.552v-0.001   c1.128,1.686,5.118,7.643,7.175,10.727c0.255,0.388-0.176,0.631-0.492,0.178l-6.072-9.055c0.01-0.09,0.011-0.176-0.013-0.238   c-0.035-0.094-0.121-0.116-0.228-0.12l-0.838-1.249c0-0.001-0.002-0.002-0.003-0.003   C192.018,366.554,191.796,366.178,192.007,366.078L192.007,366.078z M186.094,380.75c-0.004,0.262-0.016,0.704,0.124,0.695   l0.64-0.04c0.14-0.009,0.172-0.132,0.329-0.202c0.156-0.069,0.367,0.098,0.527,0.088l1.559-0.098   c0.203-0.012,0.111-0.34-0.031-0.498c-0.137-0.155-0.776-0.213-1.003-0.319s-0.346-0.399-0.315-0.542   c0.032-0.143,0.049-0.186,0.012-0.463c-0.038-0.278,0.104-1.23,0.248-2.122c0.146-0.892,1.064-3.537,1.096-3.681   c0.031-0.142,0.164,0.052,0.345,0.381c0.181,0.33,1.169,2.014,1.478,2.797c0.31,0.783,1.063,1.92,1.271,2.369   c0.208,0.447,0.456,0.874,0.508,1.072c0.052,0.196,0.233,0.525,0.354,0.539c0.121,0.013,0.591-0.179,0.785-0.289   c0.193-0.113,0.145-0.25,0.256-0.397s0.417-0.065,0.595-0.118c0.177-0.051,0.957-0.74,1.03-0.847   c0.074-0.104-0.035-0.238-0.184-0.37c-0.148-0.131-0.388-0.096-0.644-0.02c-0.256,0.076-0.694,0.145-0.834,0.133   c-0.141-0.012-0.439,0.027-0.407-0.096c0.032-0.123,0.07-0.166,0.001-0.302c-0.068-0.136-0.624-0.684-0.953-1.444   c-0.328-0.763-0.8-2.219-1.147-3.279c-0.346-1.062-1.305-3.358-1.436-3.682c-0.062-0.153,0.007-0.307,0.002-0.576   c0-0.004,0-0.006,0-0.01c-0.122-0.016-0.48-0.062-0.897-0.101c-0.513-0.049-0.674-0.029-1.102-0.168   c-0.408-0.132-0.62-0.571-0.795-1.093c-0.184-0.543-0.331-0.819-0.369-1.098c-0.037-0.279,0.026-0.393,0.091-0.156   c0.064,0.235,0.185,0.408,0.29,0.651c0.105,0.244,0.377,0.851,0.505,1.05c0.185,0.283,0.507,0.457,0.989,0.477   c0.482,0.02,1.756,0.128,1.907,0.129c0.196-0.001,0.739,0.052,0.948,0.062c0.209,0.012,0.569,0.074,0.751,0.063   c0.11-0.007,0.271-0.072,0.397-0.165c1.92,2.893,5.426,8.178,6.001,9.062c-0.314,0.27-0.506,0.684-0.478,1.138   c0.047,0.755,0.677,1.329,1.409,1.282c0.659-0.041,1.17-0.573,1.229-1.232c0.228,0.27,0.514,0.216,0.699,0.104   c0.206-0.127,5.829-4.104,6.044-4.281c0.196-0.162,0.201-0.275,0.071-0.25c0.146-0.098,0.235-0.155,0.242-0.161   c0.322-0.267,0.363-0.486,0.152-0.798c-0.212-0.312-9.131-13.622-9.387-13.969c-0.299-0.404-0.589-0.588-0.925-0.482   c-0.476,0.146-1.791,0.941-3.409,2.043c-1.62,1.104-2.694,2.053-2.839,2.363c-0.146,0.312,0.05,0.697,0.43,1.255   c0.058,0.085,0.204,0.293,0.397,0.569c-0.302-0.255-0.676-0.34-1.027-0.115c-0.511,0.324-0.12,1.203,0.2,1.684   c0.004,0.006,0.008,0.009,0.012,0.016c0.079,0.118,0.218,0.327,0.405,0.609c-0.012,0.044-0.101,0.354-0.215,0.383   c-0.196-0.001-0.426-0.088-0.917-0.18c-0.669-0.123-0.972-0.204-0.972-0.204s-0.186-1.128-0.455-1.837   c-0.11-0.291-0.21-0.482-0.296-0.627c-0.161-0.26-0.403-0.516-0.663-0.626c-0.261-0.111-0.53-0.2-0.566-0.271   c-0.037-0.072,0.366,0.028,0.614,0.15c0.248,0.121,0.328,0.186,0.366,0.074c0-0.002,0,0,0-0.002c0.037-0.18,0.171-0.229,0.079-0.29   c-0.146-0.099-0.318-0.177-0.499-0.243c0.029-0.104,0.07-0.188,0.115-0.196c0.106-0.019,0.586,0.013,0.643-0.073   c0.071-0.109,0.05-0.477,0.053-0.593c0-0.032,0.102-0.045,0.145-0.075c0.042-0.031,0.025-0.082,0.002-0.134   c-0.058-0.124-0.233-0.468-0.233-0.468s0.139-0.03,0.392-0.165c0.253-0.136,0.393-0.503,0.295-0.497l-0.596,0.037   c-0.173,0.011-0.241-0.027-0.241-0.027s-0.158-0.264-0.54-0.457c-0.356-0.181-0.992-0.132-1.377,0.314   c-0.05,0.059-0.139,0.193-0.182,0.324c-0.157,0.48,0.07,0.942,0.128,0.938c0.049-0.003,0.067,0.004,0.104,0.069   c0.01,0.019,0.021,0.037,0.03,0.057c0.174,0.335,0.127,0.557,0.083,0.657c-0.174-0.032-0.303-0.056-0.348-0.08   c-0.16-0.086-0.171,0.049-0.135,0.317c0.036,0.268-0.205,0.418-0.324,0.701c-0.175,0.42-0.262,1.28-0.106,2.153   c0.154,0.873,0.52,2.234,0.52,2.556s-0.23,1.139-0.216,1.68c0.011,0.451,0.059,1.728,0.023,2.617c0,0.002,0,0.002,0,0.002   c0.007,0.523,0.262-0.364,0.416-0.549c0.153-0.187,0.047,0.23-0.193,0.879c-0.169,0.457-0.37,1.387-0.424,1.643   c-0.11,0.963-0.229,2.009-0.237,2.256c-0.016,0.402-0.208,0.516-0.268,0.859c-0.059,0.345,0.069,0.478-0.056,0.726   C186.066,379.969,186.098,380.488,186.094,380.75L186.094,380.75z"/>
	<path fill="#808A94" d="M200.346,368.688c-0.074-0.041-0.111-0.076-0.007-0.146c0.104-0.071,1.145-0.771,1.169-0.785   c0.025-0.019,0.133-0.313,0.484-0.553c0.137-0.093,0.402-0.261,0.52-0.068c0.119,0.192-0.002,0.328-0.301,0.533   c-0.3,0.203-1.235,0.81-1.395,0.894C200.677,368.634,200.419,368.729,200.346,368.688L200.346,368.688z"/>
	<path fill="#808A94" d="M199.757,364.137c-0.3,0.205-1.234,0.816-1.393,0.9c-0.139,0.074-0.398,0.17-0.474,0.132   c-0.076-0.038-0.114-0.074-0.011-0.146c0.103-0.069,1.143-0.773,1.167-0.791c0.024-0.017,0.127-0.31,0.478-0.551   c0.136-0.094,0.4-0.263,0.525-0.074S200.056,363.934,199.757,364.137L199.757,364.137z"/>
</g>
<g>
	<path fill="#808A94" d="M210.89,362.934l2.486-0.175v0.501l-1.884,0.133v1.533l1.74-0.122v0.493l-1.74,0.122v2.09l-0.602,0.042   V362.934z"/>
	<path fill="#808A94" d="M214.032,365.05c0-0.391-0.007-0.727-0.028-1.032l0.527-0.037l0.027,0.655l0.021-0.001   c0.15-0.455,0.52-0.764,0.924-0.792c0.062-0.004,0.11-0.001,0.165,0.003v0.569c-0.062-0.01-0.124-0.006-0.205,0   c-0.425,0.03-0.727,0.365-0.809,0.823c-0.014,0.084-0.021,0.188-0.021,0.283v1.768l-0.603,0.042v-2.281H214.032z"/>
	<path fill="#808A94" d="M216.968,362.877c0,0.206-0.144,0.381-0.384,0.396c-0.219,0.017-0.363-0.139-0.363-0.344   s0.15-0.389,0.376-0.404C216.817,362.511,216.968,362.665,216.968,362.877z M216.297,367.173v-3.315l0.603-0.043v3.315   L216.297,367.173z"/>
	<path fill="#808A94" d="M220.755,361.996v4.008c0,0.295,0.014,0.629,0.027,0.854l-0.534,0.039l-0.027-0.573l-0.021,0.001   c-0.178,0.383-0.576,0.689-1.117,0.729c-0.801,0.057-1.425-0.578-1.425-1.586c-0.007-1.102,0.685-1.822,1.486-1.878   c0.514-0.036,0.85,0.181,1,0.431l0.014-0.002v-1.979L220.755,361.996z M220.159,364.938c0-0.076-0.007-0.18-0.027-0.252   c-0.089-0.371-0.418-0.664-0.87-0.633c-0.624,0.045-0.993,0.618-0.993,1.344c0,0.672,0.335,1.203,0.979,1.158   c0.404-0.027,0.774-0.328,0.883-0.781c0.021-0.084,0.027-0.166,0.027-0.262L220.159,364.938L220.159,364.938z"/>
	<path fill="#808A94" d="M224.595,366.105c0,0.768-0.157,1.237-0.473,1.554c-0.329,0.317-0.794,0.452-1.212,0.481   c-0.397,0.027-0.835-0.037-1.103-0.195l0.15-0.478c0.219,0.13,0.562,0.228,0.973,0.199c0.617-0.044,1.069-0.397,1.069-1.239v-0.363   l-0.014,0.002c-0.178,0.319-0.541,0.593-1.055,0.629c-0.822,0.057-1.411-0.602-1.411-1.52c0-1.123,0.733-1.806,1.5-1.859   c0.575-0.039,0.883,0.233,1.035,0.498l0.014-0.002l0.021-0.502l0.534-0.037c-0.021,0.234-0.028,0.51-0.028,0.906V366.105z    M223.992,364.627c0-0.104-0.007-0.191-0.034-0.266c-0.109-0.348-0.397-0.616-0.843-0.586c-0.575,0.041-0.986,0.557-0.986,1.324   c0,0.65,0.336,1.168,0.979,1.123c0.377-0.025,0.712-0.283,0.835-0.675c0.035-0.104,0.048-0.223,0.048-0.325L223.992,364.627   L223.992,364.627z"/>
	<path fill="#808A94" d="M225.921,364.95c0.014,0.813,0.527,1.114,1.137,1.071c0.431-0.029,0.698-0.123,0.917-0.234l0.11,0.424   c-0.212,0.111-0.583,0.253-1.11,0.29c-1.021,0.071-1.63-0.563-1.63-1.563s0.589-1.823,1.555-1.892   c1.089-0.075,1.37,0.851,1.37,1.46c0,0.123-0.007,0.213-0.021,0.282L225.921,364.95z M227.688,364.396   c0.007-0.377-0.158-0.963-0.835-0.914c-0.616,0.043-0.877,0.615-0.925,1.037L227.688,364.396z"/>
	<path fill="#808A94" d="M210.896,370.6c0.301-0.076,0.74-0.147,1.144-0.177c0.637-0.044,1.055,0.052,1.335,0.284   c0.226,0.189,0.363,0.495,0.363,0.857c0,0.604-0.384,1.035-0.863,1.231v0.021c0.349,0.1,0.562,0.414,0.671,0.886   c0.15,0.635,0.26,1.071,0.356,1.243l-0.616,0.043c-0.076-0.133-0.179-0.516-0.302-1.082c-0.137-0.629-0.391-0.85-0.932-0.833   l-0.562,0.04v2.001l-0.596,0.041V370.6H210.896z M211.492,372.661l0.61-0.043c0.637-0.045,1.041-0.422,1.041-0.95   c0-0.596-0.432-0.826-1.061-0.782c-0.288,0.021-0.487,0.056-0.59,0.091V372.661z"/>
	<path fill="#808A94" d="M214.921,373.325c0.014,0.813,0.527,1.114,1.137,1.071c0.431-0.029,0.698-0.123,0.917-0.234l0.11,0.424   c-0.212,0.11-0.583,0.253-1.11,0.289c-1.021,0.072-1.63-0.562-1.63-1.564c0-1,0.589-1.821,1.555-1.89   c1.089-0.075,1.37,0.851,1.37,1.46c0,0.123-0.007,0.212-0.021,0.281L214.921,373.325z M216.689,372.77   c0.006-0.375-0.158-0.961-0.836-0.914c-0.616,0.043-0.877,0.617-0.925,1.039L216.689,372.77z"/>
	<path fill="#808A94" d="M220.378,374.376c-0.157,0.087-0.507,0.228-0.952,0.259c-1,0.069-1.651-0.562-1.651-1.576   c0-1.021,0.699-1.816,1.781-1.894c0.356-0.024,0.671,0.042,0.835,0.12l-0.137,0.469c-0.144-0.064-0.37-0.132-0.699-0.109   c-0.76,0.055-1.171,0.651-1.171,1.336c0,0.769,0.493,1.207,1.15,1.16c0.343-0.023,0.569-0.121,0.74-0.209L220.378,374.376z"/>
	<path fill="#808A94" d="M221.424,371.104l0.719,1.91c0.083,0.213,0.165,0.467,0.219,0.661l0.014-0.001   c0.062-0.201,0.13-0.461,0.212-0.706l0.658-1.991l0.637-0.045l-0.904,2.428c-0.432,1.166-0.726,1.764-1.137,2.154   c-0.301,0.274-0.589,0.397-0.74,0.436l-0.151-0.489c0.151-0.06,0.349-0.168,0.528-0.33c0.165-0.144,0.363-0.389,0.507-0.708   c0.027-0.062,0.048-0.111,0.048-0.146c0-0.033-0.014-0.08-0.048-0.154l-1.219-2.971L221.424,371.104z"/>
	<path fill="#808A94" d="M226.723,373.934c-0.157,0.086-0.506,0.227-0.952,0.258c-1,0.069-1.651-0.562-1.651-1.577   c0-1.021,0.699-1.816,1.781-1.892c0.356-0.025,0.671,0.041,0.835,0.119l-0.137,0.469c-0.144-0.064-0.37-0.133-0.699-0.108   c-0.76,0.053-1.171,0.651-1.171,1.336c0,0.769,0.493,1.205,1.151,1.159c0.343-0.023,0.569-0.121,0.74-0.209L226.723,373.934z"/>
	<path fill="#808A94" d="M227.427,369.136l0.603-0.043v4.864L227.427,374V369.136z"/>
	<path fill="#808A94" d="M229.713,369.592c0,0.206-0.144,0.381-0.384,0.396c-0.219,0.016-0.363-0.139-0.363-0.346   c0-0.205,0.15-0.387,0.376-0.402C229.562,369.227,229.713,369.38,229.713,369.592z M229.042,373.887v-3.316l0.603-0.041v3.315   L229.042,373.887z"/>
	<path fill="#808A94" d="M230.644,371.355c0-0.35-0.007-0.623-0.028-0.896l0.534-0.037l0.034,0.547l0.014-0.001   c0.164-0.319,0.548-0.655,1.096-0.694c0.459-0.031,1.171,0.192,1.171,1.33v1.974l-0.603,0.042v-1.911   c0-0.535-0.199-0.966-0.768-0.927c-0.391,0.027-0.699,0.33-0.808,0.674c-0.027,0.077-0.041,0.181-0.041,0.283v1.994l-0.603,0.041   v-2.418H230.644z"/>
	<path fill="#808A94" d="M237.278,372.824c0,0.768-0.158,1.238-0.473,1.554c-0.329,0.317-0.794,0.453-1.212,0.481   c-0.397,0.027-0.836-0.036-1.103-0.195l0.151-0.477c0.219,0.127,0.562,0.228,0.973,0.197c0.617-0.043,1.069-0.396,1.069-1.238   v-0.362l-0.014,0.001c-0.179,0.32-0.542,0.593-1.055,0.628c-0.822,0.058-1.411-0.601-1.411-1.519c0-1.123,0.733-1.806,1.5-1.858   c0.576-0.04,0.884,0.233,1.035,0.497l0.014-0.001l0.021-0.503l0.534-0.037c-0.021,0.234-0.027,0.51-0.027,0.906v1.926H237.278z    M236.675,371.345c0-0.103-0.007-0.189-0.034-0.264c-0.11-0.349-0.397-0.617-0.843-0.586c-0.575,0.04-0.986,0.556-0.986,1.323   c0,0.65,0.335,1.168,0.979,1.123c0.376-0.025,0.712-0.282,0.835-0.674c0.035-0.106,0.048-0.225,0.048-0.326L236.675,371.345   L236.675,371.345z"/>
</g>
</svg>